HIERARCHY
ROOT Hips
{
	OFFSET 0.000000 0.000000 0.000000 
	CHANNELS 6 Xposition Yposition Zposition Zrotation Yrotation Xrotation
	JOINT LeftUpLeg
	{
		OFFSET 1.363060 -1.794630 0.839290 
		CHANNELS 3 Zrotation Yrotation Xrotation
		JOINT LeftLeg
		{
			OFFSET 2.448110 -6.726130 0.000000 
			CHANNELS 3 Zrotation Yrotation Xrotation
			JOINT LeftFoot
			{
				OFFSET 2.562200 -7.039590 0.000000 
				CHANNELS 3 Zrotation Yrotation Xrotation
				JOINT LeftToeBase
				{
					OFFSET 0.157640 -0.433110 2.322550 
					CHANNELS 3 Zrotation Yrotation Xrotation
					End Site
					{
						OFFSET 0.000000 0.000000 0.000000 
					}
				}
			}
		}
	}
	JOINT RightUpLeg
	{
		OFFSET -1.305520 -1.794630 0.839290 
		CHANNELS 3 Zrotation Yrotation Xrotation
		JOINT RightLeg
		{
			OFFSET -2.542530 -6.985550 0.000000 
			CHANNELS 3 Zrotation Yrotation Xrotation
			JOINT RightFoot
			{
				OFFSET -2.568260 -7.056230 0.000000 
				CHANNELS 3 Zrotation Yrotation Xrotation
				JOINT RightToeBase
				{
					OFFSET -0.164730 -0.452590 2.363150 
					CHANNELS 3 Zrotation Yrotation Xrotation
					End Site
					{
						OFFSET 0.000000 0.000000 0.000000 
					}
				}
			}
		}
	}
	JOINT Spine
	{
		OFFSET 0.028270 2.035590 -0.193380 
		CHANNELS 3 Zrotation Yrotation Xrotation
		JOINT Spine1
		{
			OFFSET 0.056720 2.048850 -0.042750 
			CHANNELS 3 Zrotation Yrotation Xrotation
			JOINT Neck1
			{
				OFFSET -0.054170 1.746240 0.172020 
				CHANNELS 3 Zrotation Yrotation Xrotation
				JOINT Head
				{
					OFFSET 0.104070 1.761360 -0.123970 
					CHANNELS 3 Zrotation Yrotation Xrotation
					End Site
					{
						OFFSET 0.000000 0.000000 0.000000 
					}
				}
			}
			JOINT LeftArm
			{
				OFFSET 3.362410 1.200890 -0.311210 
				CHANNELS 3 Zrotation Yrotation Xrotation
				JOINT LeftForeArm
				{
					OFFSET 4.983000 -0.000000 -0.000000 
					CHANNELS 3 Zrotation Yrotation Xrotation
					JOINT LeftHand
					{
						OFFSET 3.483560 -0.000000 -0.000000 
						CHANNELS 3 Zrotation Yrotation Xrotation
						JOINT LeftHandIndex1
						{
							OFFSET 0.715260 -0.000000 -0.000000 
							CHANNELS 3 Zrotation Yrotation Xrotation
							End Site
							{
								OFFSET 0.000000 0.000000 0.000000 
							}
						}
					}
				}
			}
			JOINT RightArm
			{
				OFFSET -3.136600 1.374050 -0.404650 
				CHANNELS 3 Zrotation Yrotation Xrotation
				JOINT RightForeArm
				{
					OFFSET -5.241900 -0.000000 -0.000000 
					CHANNELS 3 Zrotation Yrotation Xrotation
					JOINT RightHand
					{
						OFFSET -3.444170 -0.000000 -0.000000 
						CHANNELS 3 Zrotation Yrotation Xrotation
						JOINT RightHandIndex1
						{
							OFFSET -0.622530 -0.000000 -0.000000 
							CHANNELS 3 Zrotation Yrotation Xrotation
							End Site
							{
								OFFSET 0.000000 0.000000 0.000000 
							}
						}
					}
				}
			}
		}
	}
}
MOTION
Frames: 7
Frame Time: 0.041667
-1.819099 17.213150 -5.626514 -156.895973 -84.143669 152.497239 -23.686776 5.545584 -11.414486 0.819374 7.146058 20.150932 1.150590 -8.737959 1.826206 0.000200 -0.082600 -0.227000 28.885039 -1.818851 11.620408 -2.805484 -10.393306 31.463605 -0.451216 -0.759510 -11.538875 -0.282200 3.416700 -9.441100 1.005310 -0.562202 -1.151147 -3.516321 -0.314568 2.688425 6.351682 0.197918 10.486658 0.121200 0.507000 4.763600 -78.792596 4.248047 21.509045 13.288377 -24.040223 -3.865751 -0.929303 -0.850670 -19.622760 -7.125000 0.000000 0.000000 78.966082 -5.084867 26.386755 -13.942169 25.594409 -3.845210 0.801769 -0.090635 0.670095 7.125000 0.000000 0.000000 
-1.721818 17.214279 -5.639238 -155.270983 -84.061868 150.898708 -23.414964 5.306707 -11.752637 0.824181 7.161644 20.172885 1.127931 -8.440107 1.980387 0.000900 -0.190100 -0.522400 29.162204 -2.050084 11.939388 -2.570982 -10.028464 30.271022 -0.468568 -0.939774 -12.203553 -0.251900 3.229500 -8.918500 1.016195 -0.517027 -1.149616 -3.576248 -0.287892 2.697904 6.341489 0.170479 10.506819 0.123900 0.492800 4.771900 -78.745395 4.296523 21.637631 13.494790 -24.280325 -3.949257 -0.923742 -0.853836 -19.753056 -7.125000 0.000000 0.000000 78.909254 -5.046896 26.495611 -14.001972 25.667902 -3.868195 0.801119 -0.088243 0.695316 7.125000 0.000000 0.000000 
-1.624229 17.216126 -5.652784 -153.678617 -83.962374 149.331291 -23.127667 5.086486 -12.077966 0.825012 7.166715 20.165952 1.102749 -8.118492 2.184877 0.001700 -0.267900 -0.736100 29.463055 -2.229575 12.245615 -2.349583 -9.669343 29.111937 -0.474377 -1.162374 -12.791098 -0.220700 3.024400 -8.346600 1.027882 -0.466809 -1.146242 -3.633210 -0.258352 2.714372 6.333052 0.144521 10.524275 0.126900 0.479300 4.777700 -78.695340 4.335150 21.756965 13.679422 -24.494439 -4.024354 -0.918278 -0.856345 -19.862643 -7.125000 0.000000 0.000000 78.849421 -5.009077 26.608698 -14.061664 25.741384 -3.891219 0.800698 -0.085648 0.703698 7.125000 0.000000 0.000000 
-1.525716 17.218691 -5.667047 -152.103564 -83.848722 147.778281 -22.823434 4.876311 -12.391548 0.821742 7.161626 20.131072 1.074814 -7.767411 2.464462 0.002100 -0.294500 -0.809000 29.787495 -2.367918 12.525846 -2.143484 -9.321626 28.001629 -0.472580 -1.410850 -13.324427 -0.187400 2.787800 -7.688400 1.041044 -0.415144 -1.139406 -3.684647 -0.227968 2.743884 6.325132 0.123132 10.536941 0.128700 0.468100 4.780400 -78.642787 4.356776 21.862234 13.841711 -24.682134 -4.090929 -0.913161 -0.858135 -19.956409 -7.125000 0.000000 0.000000 78.786900 -4.961425 26.727813 -14.117429 25.810112 -3.912857 0.800469 -0.083665 0.686462 7.125000 0.000000 0.000000 
-1.425972 17.221257 -5.682030 -150.617959 -83.733760 146.310562 -22.518293 4.667404 -12.697385 0.814785 7.149277 20.074734 1.043983 -7.381941 2.834875 0.001700 -0.265600 -0.729700 30.116517 -2.476238 12.768972 -1.954582 -8.990357 26.954287 -0.467538 -1.658402 -13.806457 -0.152300 2.514700 -6.930400 1.054628 -0.365520 -1.130304 -3.728814 -0.198535 2.778903 6.318640 0.107042 10.544939 0.130700 0.459500 4.780600 -78.590426 4.363947 21.948484 13.979868 -24.841263 -4.147837 -0.908447 -0.858697 -20.027611 -7.125000 0.000000 0.000000 78.721756 -4.905481 26.851046 -14.169729 25.874231 -3.933171 0.800684 -0.081939 0.645549 7.125000 0.000000 0.000000 
-1.324586 17.223720 -5.697730 -149.227125 -83.622284 144.933754 -22.216465 4.454869 -13.003628 0.804549 7.131364 20.001576 1.010813 -6.960754 3.308459 0.000800 -0.181700 -0.499100 30.448668 -2.550302 12.969118 -1.783579 -8.679581 25.979404 -0.459579 -1.902542 -14.240675 -0.118800 2.222400 -6.120600 1.068307 -0.318256 -1.121597 -3.765892 -0.170770 2.804278 6.309999 0.098122 10.546746 0.129000 0.454400 4.777200 -78.537454 4.362334 22.017898 14.093130 -24.971125 -4.194871 -0.904698 -0.858967 -20.086540 -7.125000 0.000000 0.000000 78.657514 -4.849577 26.984358 -14.218215 25.932648 -3.951941 0.801794 -0.081188 0.561874 7.125000 0.000000 0.000000 
-1.221353 17.225875 -5.713841 -147.921244 -83.520815 143.637702 -21.923155 4.225164 -13.308342 0.791894 7.110292 19.917152 0.975843 -6.501288 3.877914 0.000000 -0.045300 -0.124500 30.778742 -2.588877 13.126469 -1.630457 -8.392080 25.083436 -0.451342 -2.129689 -14.629756 -0.088000 1.913300 -5.266200 1.082117 -0.276945 -1.114568 -3.793787 -0.146768 2.814389 6.303997 0.098177 10.547011 0.128400 0.453800 4.774000 -78.487260 4.353254 22.063982 14.177488 -25.066550 -4.229971 -0.901928 -0.858397 -20.126537 -7.125000 0.000000 0.000000 78.593784 -4.794173 27.115459 -14.260753 25.982602 -3.968301 0.803333 -0.080747 0.471608 7.125000 0.000000 0.000000 
